<svg width="424" height="49" viewBox="0 0 424 49" fill="none" xmlns="http://www.w3.org/2000/svg">
<path d="M2 19.9239C13.7239 19.5552 24.4715 12.5359 36.197 13.3718C51.5778 14.4682 63.5101 29.5904 75.4008 37.8956C87.2005 46.1373 100.245 47.7997 114.51 46.6943C125.161 45.8689 136.183 43.039 145.731 38.27C157.245 32.5195 166.217 22.8886 176.622 15.5246C185.283 9.39459 196.689 3.32496 207.843 5.83677C215.722 7.61102 223.483 15.6668 229.76 20.2048C241.82 28.924 253.691 36.0844 268.302 39.7677C276.207 41.7603 284.614 43.6826 292.628 41.2185C300.794 38.7073 307.552 34.0167 314.78 29.6586C327.683 21.8792 340.833 15.4977 355.117 10.5169C374.996 3.58558 402.657 -3.80458 422 8.97245" stroke="#58A0A3" stroke-width="3" stroke-linecap="round"/>
</svg>
