<svg width="130" height="135" viewBox="0 0 130 135" fill="none" xmlns="http://www.w3.org/2000/svg">
<path d="M130 70C130 78.5359 128.319 86.9883 125.052 94.8744C121.786 102.761 116.998 109.926 110.962 115.962C104.926 121.998 97.7606 126.786 89.8744 130.052C81.9883 133.319 73.5359 135 65 135C56.4641 135 48.0117 133.319 40.1256 130.052C32.2394 126.786 25.0739 121.998 19.0381 115.962C13.0022 109.926 8.21438 102.761 4.94783 94.8744C1.68127 86.9883 -7.46234e-07 78.5359 0 70L24.4668 70C24.4668 75.3229 25.5152 80.5937 27.5522 85.5114C29.5892 90.4291 32.5749 94.8974 36.3387 98.6613C40.1026 102.425 44.5709 105.411 49.4886 107.448C54.4063 109.485 59.6771 110.533 65 110.533C70.3229 110.533 75.5937 109.485 80.5114 107.448C85.4291 105.411 89.8974 102.425 93.6613 98.6613C97.4251 94.8974 100.411 90.4291 102.448 85.5114C104.485 80.5937 105.533 75.3229 105.533 70H130Z" fill="#325058"/>
<path d="M95.7248 68.7609C93.261 72.7958 90.0267 76.3058 86.2064 79.0907C82.3861 81.8756 78.0547 83.8808 73.4595 84.9917C68.8643 86.1026 64.0953 86.2976 59.4248 85.5655C54.7542 84.8333 50.2736 83.1884 46.2387 80.7247C42.2039 78.2609 38.6938 75.0266 35.909 71.2063C33.1241 67.386 31.1189 63.0546 30.008 58.4594C28.897 53.8642 28.7021 49.0952 29.4342 44.4246C30.1664 39.754 31.8113 35.2734 34.275 31.2386L45.8402 38.3005C44.3039 40.8166 43.2781 43.6107 42.8216 46.5232C42.365 49.4357 42.4866 52.4096 43.1794 55.2751C43.8721 58.1406 45.1225 60.8416 46.8591 63.2239C48.5958 65.6062 50.7846 67.623 53.3007 69.1594C55.8168 70.6958 58.6108 71.7215 61.5233 72.1781C64.4358 72.6346 67.4097 72.5131 70.2752 71.8203C73.1407 71.1275 75.8417 69.8771 78.224 68.1405C80.6063 66.4039 82.6232 64.2151 84.1595 61.699L95.7248 68.7609Z" fill="#58A0A3"/>
</svg>
