<svg width="145" height="132" viewBox="0 0 145 132" fill="none" xmlns="http://www.w3.org/2000/svg">
<path d="M0 100.915C6.6261 109.236 14.8263 116.17 24.1324 121.323C33.4385 126.475 43.6683 129.743 54.2376 130.942C64.8069 132.14 75.5089 131.246 85.7328 128.308C95.9558 125.371 105.501 120.449 113.822 113.822C122.143 107.196 129.078 98.9958 134.23 89.6898C139.382 80.3838 142.65 70.1536 143.849 59.5843C145.048 49.0149 144.153 38.313 141.215 28.0896C138.278 17.8661 133.356 8.3212 126.73 0L100.797 20.6505C104.711 25.5661 107.619 31.2045 109.354 37.2438C111.089 43.2832 111.618 49.6052 110.91 55.8488C110.202 62.0925 108.271 68.1355 105.227 73.6329C102.184 79.1308 98.0868 83.9748 93.1718 87.8888C88.2558 91.8028 82.6178 94.7108 76.578 96.4458C70.5387 98.1808 64.2167 98.7098 57.9731 98.0018C51.7294 97.2938 45.6864 95.3628 40.1889 92.3188C34.6915 89.2758 29.8474 85.1788 25.9331 80.2638L0 100.915Z" fill="#89BF6B"/>
<path d="M88.2415 39.9596C89.6837 31.8019 84.2397 24.0195 76.0819 22.5773C67.9241 21.1351 60.1418 26.5791 58.6996 34.7369C57.2573 42.8946 62.7014 50.677 70.8591 52.1192C79.0169 53.5614 86.7992 48.1174 88.2415 39.9596Z" fill="#325058"/>
</svg>
