<svg width="231" height="212" viewBox="0 0 231 212" fill="none" xmlns="http://www.w3.org/2000/svg">
<path d="M2.02394 20.1715C5.05979 14.2803 9.56798 11.2705 15.531 8.45948C21.7591 5.52353 28.7888 2.3657 35.804 2.46945C42.433 2.56749 49.7577 5.69275 54.6996 10.0991C59.8579 14.6984 62.555 21.4038 64.6695 27.8306C68.1528 38.4181 69.7517 49.5078 72.9776 60.1654C76.0721 70.3888 79.8179 80.7238 84.5605 90.2944C88.2555 97.7512 93.2191 107.483 101.016 111.501C106.988 114.578 113.727 112.114 119.544 109.849C128.079 106.525 136.004 102.038 144.32 98.2547C156.926 92.5196 171.059 91.6615 181.521 101.996C189.398 109.777 193.482 121.494 196.816 131.787C201.27 145.537 203.102 159.338 203.219 173.771C203.292 182.823 201.835 193.961 206.065 202.377C210.624 211.451 220.093 209.663 228.509 210.144" stroke="#717171" stroke-width="3" stroke-linecap="round"/>
</svg>
