<svg width="324" height="282" viewBox="0 0 324 282" fill="none" xmlns="http://www.w3.org/2000/svg">
<path d="M2.08927 2C2.08927 27.0273 0.813705 51.0583 7.90583 75.3035C13.1347 93.1788 24.4072 111.529 41.5126 120.346C53.7069 126.632 74.0664 128.337 86.5217 122.282C107.845 111.917 120.335 88.048 125.899 65.9907C127.729 58.7364 131.265 40.4378 123.591 35.1018C118.062 31.2579 108.679 31.4582 104.571 36.7615C94.1774 50.1802 91.6394 65.1187 89.8916 81.6657C87.6514 102.875 88.4554 123.968 100.694 142.06C109.549 155.151 121.754 170.226 137.763 174.378C151.473 177.935 164.239 171.829 175.801 164.881C192.481 154.858 210.715 141.866 215.455 121.913C217.577 112.983 218.057 102.696 215.271 93.8368C214.674 91.9394 213.188 87.0129 210.608 86.6909C204.173 85.8875 199.302 93.6733 196.898 98.4471C187.087 117.927 196.357 142.246 207.331 158.934C223.881 184.103 243.218 209.03 263.927 230.854C276.307 243.902 289.468 256.823 303.027 268.659C309.037 273.905 314.595 277.535 322 280" stroke="#717171" stroke-width="3" stroke-linecap="round"/>
</svg>
