<svg width="229" height="229" viewBox="0 0 229 229" fill="none" xmlns="http://www.w3.org/2000/svg">
<path d="M53.613 60.7179C46.5725 68.6914 41.1714 77.9737 37.7181 88.0346C34.2648 98.0955 32.827 108.738 33.4867 119.355C34.1465 129.971 36.8908 140.354 41.5632 149.91C46.2355 159.466 52.7442 168.008 60.7178 175.049C68.6914 182.089 77.9736 187.49 88.0345 190.944C98.0954 194.397 108.738 195.835 119.355 195.175C129.971 194.515 140.354 191.771 149.91 187.098C159.466 182.426 168.008 175.917 175.049 167.944L150.199 146.002C146.04 150.712 140.994 154.557 135.349 157.317C129.704 160.077 123.57 161.698 117.299 162.088C111.027 162.478 104.74 161.628 98.7967 159.589C92.8534 157.549 87.3701 154.358 82.6598 150.199C77.9496 146.04 74.1046 140.994 71.3445 135.349C68.5845 129.704 66.9633 123.57 66.5735 117.299C66.1838 111.027 67.0332 104.74 69.0731 98.7968C71.1131 92.8535 74.3037 87.3701 78.4628 82.6599L53.613 60.7179Z" fill="#89BF6B"/>
<circle cx="129" cy="122" r="15" fill="#325058"/>
</svg>
