<svg width="63" height="81" viewBox="0 0 63 81" fill="none" xmlns="http://www.w3.org/2000/svg">
<path d="M0.13236 75.0579C5.00865 77.6572 10.3492 79.2706 15.849 79.8059C21.3488 80.3413 26.9002 79.7881 32.1862 78.178C37.4722 76.5679 42.3894 73.9324 46.6569 70.422C50.9244 66.9116 54.4587 62.5951 57.058 57.7188C59.6572 52.8425 61.2706 47.502 61.806 42.0022C62.3413 36.5024 61.7882 30.951 60.1781 25.6649C58.568 20.3789 55.9325 15.4618 52.4221 11.1943C48.9117 6.92676 44.5951 3.39247 39.7188 0.793183L31.6181 15.9902C34.4987 17.5257 37.0487 19.6135 39.1224 22.1345C41.1961 24.6554 42.7529 27.5602 43.7041 30.6828C44.6552 33.8054 44.982 37.0848 44.6657 40.3337C44.3495 43.5827 43.3964 46.7375 41.8609 49.6181C40.3254 52.4986 38.2376 55.0486 35.7167 57.1223C33.1957 59.196 30.291 60.7529 27.1683 61.704C24.0457 62.6551 20.7663 62.9819 17.5174 62.6657C14.2685 62.3494 11.1137 61.3963 8.23308 59.8608L0.13236 75.0579Z" fill="#58A0A3"/>
</svg>
