<svg width="69" height="71" viewBox="0 0 69 71" fill="none" xmlns="http://www.w3.org/2000/svg">
<path d="M13.75 40.6551L6.79001 12.2484L36.9118 11.6606L13.75 40.6551Z" fill="#BFBFBF" stroke="white" stroke-width="2" stroke-miterlimit="10"/>
<path d="M50.0331 46.9238L62.3936 22.2393L55.4337 55.0739L50.0331 46.9238Z" fill="#BFBFBF" stroke="white" stroke-width="2" stroke-miterlimit="10"/>
<path d="M1.08511 45.4746L13.75 40.6553L26.4148 66.8677L1.08511 45.4746Z" fill="#89BF6B" stroke="white" stroke-width="2" stroke-miterlimit="10"/>
<path d="M6.79001 12.2481L36.3033 1.62988L36.9118 11.6604L6.79001 12.2481Z" fill="#89BF6B" stroke="white" stroke-width="2" stroke-miterlimit="10"/>
<path d="M13.7499 40.6552L36.9118 11.6606L50.033 46.9243L13.7499 40.6552Z" fill="#325058" stroke="white" stroke-width="2" stroke-miterlimit="10"/>
<path d="M36.3033 1.62988L36.9118 11.6604L62.3936 22.2395L36.3033 1.62988Z" fill="#325058" stroke="white" stroke-width="2" stroke-miterlimit="10"/>
<path d="M6.79001 12.248L13.75 40.6549L1.08511 45.4742L6.79001 12.248Z" fill="#58A0A3" stroke="white" stroke-width="2" stroke-miterlimit="10"/>
<path d="M50.071 46.6891L62.2417 22.318L37.1019 11.8564L50.071 46.6891Z" fill="#58A0A3" stroke="white" stroke-width="2" stroke-miterlimit="10"/>
<path d="M13.7499 40.6553L26.4148 66.8677L50.033 46.9243L13.7499 40.6553Z" fill="#58A0A3" stroke="white" stroke-width="2" stroke-miterlimit="10"/>
<path d="M26.4149 66.8676L50.0331 46.9243L55.4337 55.0741L26.4149 66.8676Z" fill="#89BF6B" stroke="white" stroke-width="2" stroke-miterlimit="10"/>
</svg>
