<svg width="192" height="91" viewBox="0 0 192 91" fill="none" xmlns="http://www.w3.org/2000/svg">
<path d="M2 39.4205C5.10606 58.1182 11.7314 92.2351 37.0015 88.7525C44.1898 87.7619 49.8792 83.3421 54.7262 78.1613C62.9206 69.4026 69.6439 58.7858 74.1871 47.6799C76.7509 41.4125 84.9016 21.276 75.2511 16.7771C71.7889 15.1631 62.3419 13.948 61.6985 19.3056C60.0856 32.7367 66.0099 52.1039 78.8913 58.3554C83.3371 60.5131 88.5512 60.1534 93.3399 60.1534C101.022 60.1534 108.124 58.964 115.405 56.3889C129.232 51.4985 141.813 43.71 153.654 35.1503C159.929 30.6143 165.044 26.6248 170.875 21.553C177.874 15.4658 183.619 8.66108 190 2" stroke="#89BF6B" stroke-width="3" stroke-linecap="round"/>
</svg>
